<?xml version="1.0" encoding="UTF-8"?>
<svg version="1.1" xmlns="http://www.w3.org/2000/svg" width="946" height="377">
<path d="M0 0 C312.18 0 624.36 0 946 0 C946 124.41 946 248.82 946 377 C633.82 377 321.64 377 0 377 C0 252.59 0 128.18 0 0 Z " fill="#083949" transform="translate(0,0)"/>
<path d="M0 0 C1.23443344 -0.00276443 1.23443344 -0.00276443 2.49380493 -0.00558472 C18.32611312 0.00648916 32.57168741 2.54472914 47.625 7.5625 C47.625 8.2225 47.625 8.8825 47.625 9.5625 C48.2953125 9.6553125 48.965625 9.748125 49.65625 9.84375 C53.41006495 10.75256836 56.69667223 12.33185773 60.125 14.0625 C60.8277002 14.41707275 61.53040039 14.77164551 62.25439453 15.13696289 C72.20419029 20.28282719 81.03377976 26.65271564 89.2109375 34.32421875 C90.53199514 35.54908287 91.86743521 36.76112249 93.26098633 37.90283203 C97.7035352 41.54378659 101.17339509 45.43461101 104.5625 50.0625 C105.07828613 50.76101074 105.59407227 51.45952148 106.12548828 52.17919922 C126.27358426 79.9291649 135.43036724 113.42266343 131.25439453 147.59521484 C127.20321633 173.04470786 116.95390506 195.7528252 100.625 215.5625 C99.90570313 216.43648437 99.18640625 217.31046875 98.4453125 218.2109375 C88.60663076 229.63534083 76.96032269 238.57568798 63.625 245.5625 C62.965 245.5625 62.305 245.5625 61.625 245.5625 C61.625 246.2225 61.625 246.8825 61.625 247.5625 C60.75359375 247.86542969 59.8821875 248.16835938 58.984375 248.48046875 C53.10266616 250.54925162 47.32635175 252.65270983 41.625 255.1875 C27.82556751 261.04627107 13.27147485 261.73399992 -1.5 261.6875 C-2.73621094 261.69136719 -3.97242188 261.69523437 -5.24609375 261.69921875 C-13.19041791 261.69068564 -19.97605162 261.63929041 -27.375 258.5625 C-28.99361435 258.27403408 -30.6197767 258.02580024 -32.25 257.8125 C-43.72339953 255.78329503 -53.82130242 250.423084 -64 245 C-67.45381432 243.17875891 -70.91308208 241.36827803 -74.375 239.5625 C-75.51582031 238.96179688 -76.65664062 238.36109375 -77.83203125 237.7421875 C-87.68953031 233.22039894 -102.1043863 232.19595124 -112.53125 235.58984375 C-113.44390625 236.07130859 -113.44390625 236.07130859 -114.375 236.5625 C-114.16456003 224.73959998 -114.16456003 224.73959998 -111.0625 221 C-105.46959459 215.92736486 -105.46959459 215.92736486 -101.75 214.6875 C-99.20334564 213.75498256 -99.20334564 213.75498256 -98.0625 211.3125 C-97.27566257 208.16515029 -96.96277412 205.79160276 -97.375 202.5625 C-99.2420991 200.25974444 -100.73147741 198.88426129 -103.375 197.5625 C-105.74902501 197.49133618 -108.12500677 197.47840915 -110.5 197.5 C-112.42199219 197.51353516 -112.42199219 197.51353516 -114.3828125 197.52734375 C-115.37023437 197.53894531 -116.35765625 197.55054688 -117.375 197.5625 C-117.375 198.2225 -117.375 198.8825 -117.375 199.5625 C-121.35688718 201.28017682 -125.33979403 202.97287341 -129.375 204.5625 C-129.375 205.2225 -129.375 205.8825 -129.375 206.5625 C-131.74705861 207.54934881 -134.12223487 208.5270755 -136.5 209.5 C-137.16515625 209.77779297 -137.8303125 210.05558594 -138.515625 210.34179688 C-148.47604402 214.3943203 -159.60314267 215.19109546 -169.87109375 211.6640625 C-182.74876439 205.99869102 -191.93762779 196.31196568 -199.375 184.5625 C-199.375 183.9025 -199.375 183.2425 -199.375 182.5625 C-198.28703125 182.47613281 -197.1990625 182.38976562 -196.078125 182.30078125 C-186.667408 181.44174729 -178.96135184 179.72234748 -170.375 175.5625 C-168.71344618 174.8831907 -167.04822539 174.21253001 -165.375 173.5625 C-165.375 172.9025 -165.375 172.2425 -165.375 171.5625 C-163.6510545 170.30790092 -161.86732005 169.13517907 -160.0625 168 C-154.68294133 164.51089945 -149.77268401 160.71417751 -144.83984375 156.609375 C-139.57388394 152.2363751 -135.12066827 149.07683369 -128.375 147.5625 C-128.375 146.9025 -128.375 146.2425 -128.375 145.5625 C-126.76651705 144.86315959 -125.15612061 144.16804668 -123.5390625 143.48876953 C-122.0843183 142.86610488 -120.64130847 142.21535399 -119.2109375 141.53857422 C-112.48842721 138.52721562 -106.57212727 137.8613395 -99.25 137.9375 C-98.15341064 137.94515381 -97.05682129 137.95280762 -95.92700195 137.96069336 C-86.35137534 138.22040716 -78.8435085 140.21250304 -70.375 144.5625 C-69.32570312 145.09230469 -68.27640625 145.62210938 -67.1953125 146.16796875 C-55.82428335 152.38511586 -46.01356261 160.49125554 -37.10546875 169.82421875 C-34.96671142 171.96909555 -32.81899271 173.93929367 -30.52734375 175.91015625 C-26.37190173 179.50269417 -22.5723155 183.37255264 -18.75 187.3125 C-11.73801171 194.4274483 -4.41008835 200.64722139 3.625 206.5625 C4.44484375 207.23539063 5.2646875 207.90828125 6.109375 208.6015625 C9.91045506 211.5534651 12.75303616 212.99917299 17.625 212.875 C26.89607574 211.42844918 38.22844924 207.61261138 44.625 200.5625 C46.20476142 199.40347906 47.81039909 198.27906691 49.4375 197.1875 C51.1686515 195.98201202 52.89794794 194.77385378 54.625 193.5625 C55.23730469 193.13582031 55.84960938 192.70914063 56.48046875 192.26953125 C65.9958678 184.9239144 73.12397691 172.50118817 77.625 161.5625 C78.11097656 160.39332031 78.59695313 159.22414062 79.09765625 158.01953125 C85.59331768 140.56520292 85.31578162 117.94562394 78.625 100.5625 C77.4593632 98.08508686 76.24769249 95.76231533 74.7734375 93.45703125 C73.625 91.5625 73.625 91.5625 72.6953125 89.1171875 C66.18694582 73.58261885 48.840506 61.48338181 34.015625 54.9140625 C28.65339295 52.77658291 23.18910721 51.08852097 17.625 49.5625 C17.02510254 49.385979 16.42520508 49.20945801 15.80712891 49.02758789 C10.99616017 48.00220241 5.96100475 48.33433178 1.0625 48.3125 C-0.06736328 48.291875 -1.19722656 48.27125 -2.36132812 48.25 C-9.8563859 48.21548045 -16.27010069 49.1974455 -23.375 51.5625 C-24.38433594 51.87832031 -25.39367187 52.19414063 -26.43359375 52.51953125 C-44.89117379 59.15698614 -61.43482637 71.16719615 -71.375 88.5625 C-72.14439681 90.78852615 -72.14439681 90.78852615 -72.375 92.5625 C-73.035 92.5625 -73.695 92.5625 -74.375 92.5625 C-75.10098172 94.69410589 -75.81541972 96.82849989 -76.515625 98.96875 C-77.04300598 100.56048168 -77.59060355 102.14589783 -78.171875 103.71875 C-81.15657824 112.36829817 -81.58460343 121.50548523 -82.375 130.5625 C-85.33537963 130.14942377 -87.95515305 129.74696486 -90.70214844 128.54003906 C-93.77680767 127.41554732 -96.18432235 127.30391333 -99.453125 127.296875 C-100.61457031 127.29429687 -101.77601563 127.29171875 -102.97265625 127.2890625 C-104.78056641 127.30066406 -104.78056641 127.30066406 -106.625 127.3125 C-108.40970703 127.30089844 -108.40970703 127.30089844 -110.23046875 127.2890625 C-116.93222841 127.30387302 -122.90147509 127.81214777 -129.375 129.5625 C-129.85970994 112.57072379 -128.63619885 96.29002781 -120.609375 81.0390625 C-119.44409175 78.70112078 -118.55931631 76.39667996 -117.6875 73.9375 C-112.41004359 60.5441146 -103.42663616 49.64257077 -93.375 39.5625 C-92.1065625 38.28826172 -92.1065625 38.28826172 -90.8125 36.98828125 C-90.008125 36.18777344 -89.20375 35.38726562 -88.375 34.5625 C-87.62863281 33.80710938 -86.88226563 33.05171875 -86.11328125 32.2734375 C-74.21651773 20.81729486 -59.45191959 12.54099204 -43.9375 7.0625 C-43.13634766 6.76730469 -42.33519531 6.47210938 -41.50976562 6.16796875 C-27.77945781 1.3093875 -14.42631188 -0.04082046 0 0 Z " fill="#55C8EB" transform="translate(288.375,50.4375)"/>
<path d="M0 0 C14.92734733 0 14.92734733 0 22.25390625 0.5859375 C23.07062302 0.64696655 23.88733978 0.70799561 24.72880554 0.77087402 C27.3404588 0.96711675 29.95149424 1.17033413 32.5625 1.375 C36.20431385 1.65773119 39.84625305 1.93879411 43.48828125 2.21875 C44.38549896 2.28818817 45.28271667 2.35762634 46.2071228 2.4291687 C51.71250927 2.84840713 57.2162152 3.19225055 62.73046875 3.46875 C64.0155835 3.53916504 65.30069824 3.60958008 66.62475586 3.68212891 C68.97751265 3.80730083 71.33130129 3.91480062 73.68579102 4.00146484 C74.72276123 4.06027832 75.75973145 4.1190918 76.828125 4.1796875 C77.7140332 4.21819824 78.59994141 4.25670898 79.51269531 4.29638672 C83.12637427 5.31863081 84.62312877 7.12780223 87 10 C87.64164734 13.19145203 87.64164734 13.19145203 87.6628418 16.8347168 C87.67320969 17.50213394 87.68357758 18.16955109 87.69425964 18.85719299 C87.72127474 21.05516806 87.71167671 23.25113827 87.69921875 25.44921875 C87.70513307 26.98753918 87.71238206 28.525855 87.72090149 30.06416321 C87.73277479 33.28805515 87.72609226 36.51125655 87.70678711 39.73510742 C87.68398961 43.84321618 87.71057996 47.94924398 87.75184917 52.05714703 C87.77758511 55.23596456 87.7748034 58.41429542 87.76395607 61.5931797 C87.76248026 63.10607598 87.77003226 64.61901163 87.78720665 66.13181114 C87.86670977 74.49682535 87.3427538 81.13412597 82.66413879 88.31794739 C81 90 81 90 77.125 90.625 C76.09375 90.41875 75.0625 90.2125 74 90 C75.522181 93.65229187 77.08696943 97.23362666 78.89453125 100.75390625 C79.20970703 101.38103516 79.52488281 102.00816406 79.84960938 102.65429688 C80.49710993 103.93747749 81.15888477 105.21354442 81.83398438 106.48242188 C83.46838309 109.79557669 84.05356744 111.67784619 83.44140625 115.359375 C82 118 82 118 80.2578125 119.13671875 C79.55398438 119.31847656 78.85015625 119.50023437 78.125 119.6875 C77.32964844 119.9040625 76.53429687 120.120625 75.71484375 120.34375 C74.81894531 120.5603125 73.92304687 120.776875 73 121 C71.97003906 121.2784375 70.94007813 121.556875 69.87890625 121.84375 C65.43855016 123.01769971 61.61489394 124 57 124 C56.67 122.35 56.34 120.7 56 119 C55.34 119 54.68 119 54 119 C53.78085937 118.45472656 53.56171875 117.90945312 53.3359375 117.34765625 C51.13270637 112.10826514 48.5416175 107.62214853 45.171875 103.04296875 C44 101 44 101 44 97 C43.34 97 42.68 97 42 97 C41.67 95.68 41.34 94.36 41 93 C38.36 93 35.72 93 33 93 C33 102.24 33 111.48 33 121 C30.59561702 122.20219149 28.73482875 122.30179871 26.0546875 122.53515625 C25.05953125 122.62216797 24.064375 122.70917969 23.0390625 122.79882812 C21.99492188 122.88583984 20.95078125 122.97285156 19.875 123.0625 C18.34359375 123.19881836 18.34359375 123.19881836 16.78125 123.33789062 C11.12499468 123.82136232 5.71103855 124 0 124 C0 83.08 0 42.16 0 0 Z " fill="#6FD0EE" transform="translate(721,134)"/>
<path d="M0 0 C4.51492372 -0.28712978 9.02441409 -0.49414746 13.54637146 -0.63171387 C15.07911285 -0.68909874 16.61123712 -0.76725366 18.14176941 -0.86755371 C30.76139451 -1.6730343 30.76139451 -1.6730343 36.18946838 2.38366699 C41.83727171 8.28247092 45.68670468 15.59793906 49 23 C51.71367671 20.40905789 53.92790892 17.84482861 55.98046875 14.70703125 C56.76647461 13.5149707 56.76647461 13.5149707 57.56835938 12.29882812 C58.10267578 11.47833984 58.63699219 10.65785156 59.1875 9.8125 C60.26341775 8.17258286 61.34019452 6.53322888 62.41796875 4.89453125 C62.89000732 4.17112549 63.3620459 3.44771973 63.84838867 2.70239258 C65 1 65 1 66 0 C68.52094076 -0.08847743 71.01430893 -0.11527301 73.53515625 -0.09765625 C74.66503212 -0.09553383 74.66503212 -0.09553383 75.81773376 -0.09336853 C78.2326956 -0.08775376 80.64756601 -0.07519883 83.0625 -0.0625 C84.69596221 -0.0574869 86.32942586 -0.05292366 87.96289062 -0.04882812 C91.97529285 -0.03862883 95.98763353 -0.01966917 100 0 C100.8206299 15.71791863 101.1377426 31.38352156 101.09765625 47.12109375 C101.09578412 49.33024564 101.09436399 51.53939796 101.09336853 53.74855042 C101.08960582 59.47754118 101.07983137 65.20650536 101.06866455 70.93548584 C101.05831367 76.81571086 101.05384204 82.69594031 101.04882812 88.57617188 C101.03820144 100.05079463 101.02065779 111.52539091 101 123 C90.44 123 79.88 123 69 123 C68.1004712 118.502356 67.78371983 114.32540456 67.68359375 109.7734375 C67.65235413 108.55975243 67.65235413 108.55975243 67.6204834 107.32154846 C67.55437825 104.67279397 67.49550649 102.02394339 67.4375 99.375 C67.41632111 98.47314972 67.39514221 97.57129944 67.37332153 96.64212036 C66.94790915 78.42710152 66.88716255 60.21890781 67 42 C66.34 42 65.68 42 65 42 C64.78214844 42.65742188 64.56429687 43.31484375 64.33984375 43.9921875 C62.53541869 48.04293765 60.0959118 51.49829054 57.5625 55.125 C57.07201172 55.84042969 56.58152344 56.55585938 56.07617188 57.29296875 C53.88866188 60.45172138 51.78900105 63.33997305 49 66 C43.60529507 58.53170536 38.84634533 50.87531116 34 43 C33.01 69.07 32.02 95.14 31 122 C19.75 123.125 19.75 123.125 14.9921875 123.09765625 C13.98671875 123.09443359 12.98125 123.09121094 11.9453125 123.08789062 C10.42550781 123.07532227 10.42550781 123.07532227 8.875 123.0625 C7.2971875 123.05573242 7.2971875 123.05573242 5.6875 123.04882812 C3.12493779 123.03718011 0.56250123 123.02082553 -2 123 C-2.26348305 92.72579783 -1.89987095 62.50917401 -1 32.25 C-0.96412655 31.04326189 -0.96412655 31.04326189 -0.92752838 29.81214523 C-0.63094697 19.8743581 -0.32167471 9.93700762 0 0 Z " fill="#6ECFED" transform="translate(457,135)"/>
<path d="M0 0 C1.07482132 -0.02367142 2.14964264 -0.04734283 3.2570343 -0.07173157 C4.21579468 -0.09775955 5.17455505 -0.12378754 6.16236877 -0.15060425 C8.59590149 0.1179657 8.59590149 0.1179657 11.48262024 2.70780945 C12.07687805 3.81253601 12.67113586 4.91726257 13.28340149 6.0554657 C14.21732727 7.70868835 14.21732727 7.70868835 15.17012024 9.39530945 C15.87588196 10.74302429 15.87588196 10.74302429 16.59590149 12.1179657 C17.09090149 12.6129657 17.09090149 12.6129657 17.59590149 13.1179657 C17.74961934 15.11328481 17.83449235 17.11392813 17.89302063 19.11430359 C17.95295448 21.0546196 17.95295448 21.0546196 18.01409912 23.03413391 C18.05329493 24.46962422 18.09227479 25.90512043 18.13105774 27.34062195 C18.17427017 28.82381525 18.21777837 30.30699996 18.26156616 31.79017639 C18.37720275 35.76585976 18.4856905 39.74170745 18.59209442 43.71764755 C18.65809304 46.16900926 18.72596171 48.62031273 18.79432678 51.0716095 C19.47039318 75.43163411 19.79166393 99.74554159 19.59590149 124.1179657 C8.70590149 124.1179657 -2.18409851 124.1179657 -13.40409851 124.1179657 C-13.40409851 111.5779657 -13.40409851 99.0379657 -13.40409851 86.1179657 C-17.03409851 86.4479657 -20.66409851 86.7779657 -24.40409851 87.1179657 C-26.96596943 87.17844424 -29.52913942 87.20583658 -32.09159851 87.1804657 C-33.2917157 87.17144226 -34.49183289 87.16241882 -35.72831726 87.15312195 C-36.61132507 87.14152039 -37.49433289 87.12991882 -38.40409851 87.1179657 C-38.39249695 88.1595282 -38.38089539 89.2010907 -38.36894226 90.2742157 C-38.17841847 115.21524553 -38.17841847 115.21524553 -40.40409851 124.1179657 C-50.30409851 124.1179657 -60.20409851 124.1179657 -70.40409851 124.1179657 C-69.44120789 92.34257507 -69.44120789 92.34257507 -68.90409851 78.3679657 C-68.86872986 77.40189392 -68.83336121 76.43582214 -68.79692078 75.44047546 C-68.61265769 70.80486773 -68.33496067 66.20221027 -67.90409851 61.58280945 C-67.10146284 52.39263101 -67.04570284 43.16461163 -66.85185242 33.94584656 C-66.7995922 31.52006164 -66.74259445 29.09441856 -66.68534851 26.66874695 C-66.67177307 25.94351334 -66.65819763 25.21827972 -66.64421082 24.47106934 C-66.59367843 22.35106823 -66.50510594 20.23612415 -66.40409851 18.1179657 C-66.37207336 16.96824783 -66.37207336 16.96824783 -66.33940125 15.79530334 C-66.07245024 11.35167175 -65.50149552 7.57048968 -62.25398254 4.21751404 C-57.95980545 1.66510794 -52.72830503 2.01808092 -47.86894226 1.8757782 C-46.02448265 1.78863052 -46.02448265 1.78863052 -44.14276123 1.69972229 C-40.20967514 1.52060943 -36.27629834 1.38159112 -32.34159851 1.2429657 C-29.71974023 1.1283454 -27.09799166 1.01118544 -24.47636414 0.8914032 C-16.31843584 0.53333659 -8.1603768 0.28278986 0 0 Z " fill="#6DCEEC" transform="translate(665.4040985107422,133.8820343017578)"/>
<path d="M0 0 C1.09828125 -0.00773437 2.1965625 -0.01546875 3.328125 -0.0234375 C18.18851681 0.0117767 32.73072699 3.48368369 46 10.25 C46.57089355 10.5397168 47.14178711 10.82943359 47.72998047 11.12792969 C55.48683727 15.11964721 62.69383656 19.42491226 69.375 25.0625 C69.91608398 25.51826416 70.45716797 25.97402832 71.01464844 26.44360352 C73.74276334 28.84107796 75.5339326 30.9383249 77 34.25 C78.32467746 34.9337045 79.65863633 35.59964186 81 36.25 C84 39.67857143 84 39.67857143 84 42.25 C84.66 42.25 85.32 42.25 86 42.25 C89 46.63461538 89 46.63461538 89 49.25 C89.66 49.25 90.32 49.25 91 49.25 C91.33 51.56 91.66 53.87 92 56.25 C92.66 56.25 93.32 56.25 94 56.25 C94.66 57.24 95.32 58.23 96 59.25 C95.67 60.24 95.34 61.23 95 62.25 C94.30777344 61.34121094 94.30777344 61.34121094 93.6015625 60.4140625 C79.26086565 41.99221872 63.54655474 31.43365425 41 25.25 C40.40010254 25.073479 39.80020508 24.89695801 39.18212891 24.71508789 C34.37116017 23.68970241 29.33600475 24.02183178 24.4375 24 C23.30763672 23.979375 22.17777344 23.95875 21.01367188 23.9375 C13.5186141 23.90298045 7.10489931 24.8849455 0 27.25 C-1.00933594 27.56582031 -2.01867187 27.88164063 -3.05859375 28.20703125 C-21.51617379 34.84448614 -38.05982637 46.85469615 -48 64.25 C-48.76939681 66.47602615 -48.76939681 66.47602615 -49 68.25 C-49.66 68.25 -50.32 68.25 -51 68.25 C-51.72598172 70.38160589 -52.44041972 72.51599989 -53.140625 74.65625 C-53.66800598 76.24798168 -54.21560355 77.83339783 -54.796875 79.40625 C-57.78157824 88.05579817 -58.20960343 97.19298523 -59 106.25 C-61.96037963 105.83692377 -64.58015305 105.43446486 -67.32714844 104.22753906 C-70.40180767 103.10304732 -72.80932235 102.99141333 -76.078125 102.984375 C-77.23957031 102.98179687 -78.40101563 102.97921875 -79.59765625 102.9765625 C-81.40556641 102.98816406 -81.40556641 102.98816406 -83.25 103 C-85.03470703 102.98839844 -85.03470703 102.98839844 -86.85546875 102.9765625 C-93.55722841 102.99137302 -99.52647509 103.49964777 -106 105.25 C-106.37290458 92.1776228 -106.62148671 76.39241129 -101 64.25 C-100.01 63.755 -100.01 63.755 -99 63.25 C-99 64.24 -99 65.23 -99 66.25 C-98.47792969 65.18523437 -97.95585937 64.12046875 -97.41796875 63.0234375 C-92.26536672 52.77283369 -86.36683785 44.02059751 -79 35.25 C-78.06027344 33.98929688 -78.06027344 33.98929688 -77.1015625 32.703125 C-74.43457257 29.58998433 -71.43558754 27.23035776 -68.1875 24.75 C-67.59646484 24.28980469 -67.00542969 23.82960938 -66.39648438 23.35546875 C-64.60889357 21.97140172 -62.80846553 20.60665642 -61 19.25 C-60.42467529 18.81631104 -59.84935059 18.38262207 -59.2565918 17.93579102 C-48.74829152 10.2014807 -36.71473917 5.05696974 -24 2.25 C-23.2054541 2.07339844 -22.4109082 1.89679688 -21.59228516 1.71484375 C-14.35469281 0.23719594 -7.37259347 -0.05191967 0 0 Z " fill="#40C1E8" transform="translate(265,74.75)"/>
<path d="M0 0 C15 1 15 1 21 2 C21 13.55 21 25.1 21 37 C14 38 14 38 0 38 C0 25.46 0 12.92 0 0 Z " fill="#0C4051" transform="translate(755,161)"/>
<path d="M0 0 C0 9.9 0 19.8 0 30 C-7.26 30 -14.52 30 -22 30 C-22.020625 26.865 -22.04125 23.73 -22.0625 20.5 C-22.071604 19.52869141 -22.08070801 18.55738281 -22.09008789 17.55664062 C-22.10674441 12.27383619 -21.77542064 7.22645721 -21 2 C-18.43795456 1.66280953 -15.87545682 1.33012847 -13.3125 1 C-12.59126953 0.90460938 -11.87003906 0.80921875 -11.12695312 0.7109375 C-10.42119141 0.62070313 -9.71542969 0.53046875 -8.98828125 0.4375 C-8.02208862 0.31181641 -8.02208862 0.31181641 -7.03637695 0.18359375 C-4.69959751 -0.0270834 -2.34625724 0 0 0 Z " fill="#0C4051" transform="translate(651,165)"/>
<path d="M0 0 C14.95439189 0 14.95439189 0 22.3125 0.5 C23.06466797 0.54769531 23.81683594 0.59539062 24.59179688 0.64453125 C26.39476749 0.75937014 28.19742509 0.87910875 30 1 C30 1.33 30 1.66 30 2 C27.02076997 2.02727678 24.04179621 2.04697128 21.0625 2.0625 C19.81629883 2.07506836 19.81629883 2.07506836 18.54492188 2.08789062 C17.71669922 2.09111328 16.88847656 2.09433594 16.03515625 2.09765625 C15.2862915 2.10289307 14.53742676 2.10812988 13.76586914 2.11352539 C9.82970209 1.951965 5.91538638 1.43504293 2 1 C2 40.93 2 80.86 2 122 C6.62 122 11.24 122 16 122 C16 122.33 16 122.66 16 123 C8.08 123.495 8.08 123.495 0 124 C0 83.08 0 42.16 0 0 Z " fill="#4EA0BA" transform="translate(721,134)"/>
<path d="M0 0 C4.08458829 0.54119371 8.1205404 1.19979889 12.16796875 1.97265625 C23.75322953 4.1129364 35.01787655 5.38053553 46.8125 5.375 C47.94905029 5.37636963 49.08560059 5.37773926 50.2565918 5.37915039 C56.77663573 5.29442476 62.97054794 4.66871435 69.37475586 3.43652344 C72.97325649 2.83816771 76.36128396 2.86004938 80 3 C65.54596173 11.65736667 37.8242831 10.23113634 22 7 C20.32478822 6.35510644 18.65721286 5.68983169 17 5 C15.19630049 4.62193198 13.38257193 4.28914618 11.5625 4 C7.55055364 3.31688481 3.82001295 2.4454103 0 1 C0 0.67 0 0.34 0 0 Z " fill="#1891B6" transform="translate(244,304)"/>
<path d="M0 0 C0 3.78382198 -0.84796435 4.17248607 -3.4375 6.8125 C-11.82889334 15.96134655 -17.77213278 26.80621372 -23 38 C-24.50961043 33.47116872 -22.61230625 30.3505619 -21 26 C-20.70867187 25.10667969 -20.41734375 24.21335938 -20.1171875 23.29296875 C-17.71410379 16.39672433 -17.71410379 16.39672433 -14.1875 14.4375 C-13.135625 13.963125 -12.08375 13.48875 -11 13 C-9.0817188 10.84453436 -7.39758401 8.59383134 -5.7109375 6.25390625 C-3.96798081 3.95781946 -2.07875419 1.99251766 0 0 Z " fill="#68C7E4" transform="translate(189,105)"/>
<path d="M0 0 C0.66 0.33 1.32 0.66 2 1 C-3.91781611 8.08470943 -10.43141333 14.52848604 -17 21 C-17 17.01779104 -15.67791645 16.19397428 -13 13.3125 C-12.18660156 12.43464844 -11.37320313 11.55679688 -10.53515625 10.65234375 C-7.08260129 7.04019457 -3.57680007 3.48908562 0 0 Z " fill="#115266" transform="translate(238,114)"/>
<path d="M0 0 C0.99 0.33 1.98 0.66 3 1 C-1.95 5.95 -6.9 10.9 -12 16 C-12.33 15.01 -12.66 14.02 -13 13 C-8.66666667 8.66666667 -4.33333333 4.33333333 0 0 Z " fill="#72C4DC" transform="translate(202,83)"/>
<path d="M0 0 C5.22000584 0.52200058 9.58713788 2.20904902 14 5 C14.33 5.66 14.66 6.32 15 7 C9.76727367 5.36041242 4.84803364 3.61047965 0 1 C0 0.67 0 0.34 0 0 Z " fill="#2594B6" transform="translate(229,297)"/>
<path d="M0 0 C0.66 0.33 1.32 0.66 2 1 C0.88121617 2.17262904 -0.24523051 3.33795138 -1.375 4.5 C-2.00148437 5.1496875 -2.62796875 5.799375 -3.2734375 6.46875 C-5 8 -5 8 -7 8 C-5.50902342 4.2047869 -3.24299151 2.38957269 0 0 Z " fill="#3DA4C4" transform="translate(184,266)"/>
<path d="M0 0 C0.33 0.66 0.66 1.32 1 2 C-1 5 -1 5 -3.125 5.6875 C-3.74375 5.790625 -4.3625 5.89375 -5 6 C-5 4.68 -5 3.36 -5 2 C-3.35 1.34 -1.7 0.68 0 0 Z " fill="#6EC9E5" transform="translate(177,119)"/>
</svg>
